<svg xmlns="http://www.w3.org/2000/svg" version="1.1" xmlns:xlink="http://www.w3.org/1999/xlink" xmlns:svgjs="http://svgjs.dev/svgjs" width="1000" height="1000" viewBox="0 0 1000 1000"><rect width="1000" height="1000" fill="#ffffff"></rect><g transform="matrix(0.7,0,0,0.7,149.5757575757575,396.8138707558115)"><svg viewBox="0 0 396 117" data-background-color="#ffffff" preserveAspectRatio="xMidYMid meet" height="295" width="1000" xmlns="http://www.w3.org/2000/svg" xmlns:xlink="http://www.w3.org/1999/xlink"><g id="tight-bounds" transform="matrix(1,0,0,1,0.24000000000003752,-0.036188273268493276)"><svg viewBox="0 0 395.5199999999999 117.07237654653697" height="117.07237654653697" width="395.5199999999999"><g><svg viewBox="0 0 672.4188840711802 199.03336567805272" height="117.07237654653697" width="395.5199999999999"><g transform="matrix(1,0,0,1,276.8988840711802,72.01068979341376)"><svg viewBox="0 0 395.52 55.01198609122519" height="55.01198609122519" width="395.52"><g><svg viewBox="0 0 395.52 55.01198609122519" height="55.01198609122519" width="395.52"><g><svg viewBox="0 0 395.52 55.01198609122519" height="55.01198609122519" width="395.52"><g transform="matrix(1,0,0,1,0,0)"><svg width="395.52" viewBox="3.4 -33.5 244.43 34" height="55.01198609122519" data-palette-color="#bb84e8"><path d="M28-9.95L32-8.45Q30.95-5.65 29-3.63 27.05-1.6 24.43-0.55 21.8 0.5 18.7 0.5L18.7 0.5Q14 0.5 10.58-1.58 7.15-3.65 5.28-7.45 3.4-11.25 3.4-16.5L3.4-16.5Q3.4-21.75 5.28-25.55 7.15-29.35 10.58-31.43 14-33.5 18.6-33.5L18.6-33.5Q21.8-33.5 24.3-32.63 26.8-31.75 28.58-30.03 30.35-28.3 31.4-25.8L31.4-25.8 27.45-23.95Q26.35-26.8 24.28-28.28 22.2-29.75 18.9-29.75L18.9-29.75Q15.55-29.75 13-28.18 10.45-26.6 9.03-23.65 7.6-20.7 7.6-16.5L7.6-16.5Q7.6-12.35 8.95-9.38 10.3-6.4 12.8-4.83 15.3-3.25 18.7-3.25L18.7-3.25Q22-3.25 24.45-4.93 26.9-6.6 28-9.95L28-9.95ZM53-33.5L53-33.5Q57.7-33.5 61.12-31.43 64.55-29.35 66.42-25.55 68.3-21.75 68.3-16.5L68.3-16.5Q68.3-11.25 66.42-7.45 64.55-3.65 61.12-1.58 57.7 0.5 53 0.5L53 0.5Q48.3 0.5 44.87-1.58 41.45-3.65 39.57-7.45 37.7-11.25 37.7-16.5L37.7-16.5Q37.7-21.75 39.57-25.55 41.45-29.35 44.87-31.43 48.3-33.5 53-33.5ZM53-29.75L53-29.75Q49.6-29.75 47.1-28.18 44.6-26.6 43.25-23.63 41.9-20.65 41.9-16.5L41.9-16.5Q41.9-12.35 43.25-9.38 44.6-6.4 47.1-4.83 49.6-3.25 53-3.25L53-3.25Q56.45-3.25 58.92-4.83 61.4-6.4 62.75-9.38 64.1-12.35 64.1-16.5L64.1-16.5Q64.1-20.65 62.75-23.63 61.4-26.6 58.92-28.18 56.45-29.75 53-29.75ZM77.1-33L81.1-33 81.1 0 77.1 0 77.1-33ZM113.99-33L117.79-33 117.79 0 112.84 0 99.04-22.1 95.54-28.3 95.49-28.3 95.69-23.3 95.69 0 91.89 0 91.89-33 96.84-33 110.59-11 114.14-4.65 114.19-4.65 113.99-9.7 113.99-33ZM128.59-33L132.59-33 132.59 0 128.59 0 128.59-33ZM166.49-33L166.49-29.25 147.39-29.25 147.39-18.6 162.29-18.6 162.29-14.85 147.39-14.85 147.39 0 143.39 0 143.39-33 166.49-33ZM173.89-33L177.89-33 177.89 0 173.89 0 173.89-33ZM212.58 0L188.68 0 188.68-33 211.83-33 211.83-29.25 192.68-29.25 192.68-18.6 207.58-18.6 207.58-14.85 192.68-14.85 192.68-3.75 212.58-3.75 212.58 0ZM220.58-33L231.23-33Q238.98-33 243.41-28.73 247.83-24.45 247.83-16.5L247.83-16.5Q247.83-8.55 243.41-4.28 238.98 0 231.23 0L231.23 0 220.58 0 220.58-33ZM224.58-3.75L231.63-3.75Q237.28-3.75 240.46-7.13 243.63-10.5 243.63-16.5L243.63-16.5Q243.63-22.5 240.46-25.88 237.28-29.25 231.63-29.25L231.63-29.25 224.58-29.25 224.58-3.75Z" opacity="1" transform="matrix(1,0,0,1,0,0)" fill="#bb84e8" class="undefined-text-0" data-fill-palette-color="primary" id="text-0"></path></svg></g></svg></g></svg></g></svg></g><g><svg viewBox="0 0 244.43135999999998 199.03336567805272" height="199.03336567805272" width="244.43135999999998"><g><svg viewBox="0 0 244.43135999999998 199.03336567805272" height="199.03336567805272" width="244.43135999999998"><g transform="matrix(1,0,0,1,64.60265593644993,64.11037232794101)"><svg viewBox="0 0 115.22604812710013 70.8126210221707" height="70.8126210221707" width="115.22604812710013"><g><svg xmlns="http://www.w3.org/2000/svg" data-name="Layer 1" viewBox="2.430551296850039 20.791921772371193 95.13905146437826 58.46807822762881" x="0" y="0" height="70.8126210221707" width="115.22604812710013" class="icon-wb-0" data-fill-palette-color="accent" id="wb-0"><path d="M62.78 23l32 55.42 1.3-2.26h-64l1.3 2.26L65.37 23a1.5 1.5 0 0 0-2.59-1.51L30.79 77a1.51 1.51 0 0 0 1.3 2.26h64A1.51 1.51 0 0 0 97.37 77l-32-55.42A1.5 1.5 0 0 0 62.78 23Z" fill="#bb84e8" data-fill-palette-color="accent"></path><path d="M34.63 23l32 55.42 1.3-2.26h-64l1.3 2.26L37.22 23a1.5 1.5 0 0 0-2.59-1.51L2.63 77a1.51 1.51 0 0 0 1.3 2.26h64A1.51 1.51 0 0 0 69.21 77l-32-55.42A1.5 1.5 0 0 0 34.63 23Z" fill="#bb84e8" data-fill-palette-color="accent"></path></svg><g></g></g></svg></g><path d="M39.622 65.412L40.93 63.831C41.666 64.445 42.239 65.153 42.649 65.956 43.059 66.76 43.284 67.611 43.323 68.51 43.367 69.418 43.225 70.342 42.898 71.283V71.283C42.406 72.701 41.666 73.822 40.677 74.645 39.69 75.462 38.525 75.954 37.181 76.12 35.828 76.29 34.359 76.1 32.772 75.549V75.549C31.184 74.998 29.913 74.237 28.957 73.265 28.005 72.302 27.395 71.194 27.127 69.941 26.861 68.682 26.969 67.359 27.45 65.973V65.973C27.787 65.001 28.219 64.184 28.743 63.522 29.27 62.855 29.888 62.342 30.596 61.983 31.308 61.633 32.096 61.428 32.96 61.37V61.37L33.173 63.458C32.198 63.492 31.379 63.745 30.716 64.218 30.053 64.691 29.548 65.426 29.202 66.423V66.423C28.849 67.439 28.777 68.416 28.986 69.353 29.195 70.29 29.67 71.13 30.41 71.872 31.153 72.608 32.161 73.197 33.435 73.639V73.639C34.689 74.074 35.839 74.245 36.884 74.151 37.923 74.054 38.812 73.71 39.552 73.116 40.29 72.529 40.838 71.721 41.195 70.692V70.692C41.544 69.688 41.592 68.728 41.341 67.811 41.096 66.897 40.523 66.097 39.622 65.412ZM44.885 36.074V36.074C45.836 34.904 46.914 34.104 48.121 33.672 49.331 33.236 50.596 33.169 51.916 33.471 53.246 33.773 54.562 34.454 55.866 35.513V35.513C57.17 36.573 58.105 37.723 58.672 38.962 59.238 40.192 59.431 41.445 59.251 42.719 59.076 43.988 58.512 45.207 57.562 46.377V46.377C56.615 47.542 55.537 48.342 54.326 48.779 53.12 49.21 51.856 49.275 50.537 48.972 49.207 48.67 47.891 47.99 46.587 46.93V46.93C45.283 45.87 44.348 44.721 43.781 43.481 43.215 42.251 43.02 41.001 43.195 39.732 43.375 38.458 43.938 37.239 44.885 36.074ZM46.284 37.211V37.211C45.597 38.056 45.198 38.947 45.087 39.884 44.972 40.826 45.147 41.764 45.612 42.697 46.081 43.635 46.832 44.523 47.862 45.361V45.361C48.893 46.199 49.915 46.751 50.93 47.02 51.939 47.284 52.893 47.263 53.791 46.958 54.685 46.658 55.476 46.085 56.163 45.24V45.24C56.862 44.379 57.265 43.483 57.372 42.552 57.483 41.615 57.306 40.68 56.841 39.746 56.371 38.808 55.621 37.92 54.591 37.082V37.082C53.56 36.245 52.538 35.692 51.523 35.424 50.514 35.16 49.563 35.178 48.668 35.478 47.778 35.773 46.984 36.351 46.284 37.211ZM66.627 16.657L68.215 15.574 77.149 28.675 75.561 29.758ZM99.056 2.659L100.797 2.119 105.491 17.266 103.217 17.971 93.747 9.789 91.257 7.443 91.229 7.452 92.035 9.715 95.349 20.409 93.607 20.949 88.914 5.802 91.178 5.1 100.624 13.237 103.156 15.654 103.184 15.645 102.37 13.353ZM123.627 0.004L125.55 0 125.585 15.857 123.663 15.862ZM158.738 6.66L158.225 8.389 149.431 5.778 147.974 10.686 154.83 12.721 154.32 14.44 147.464 12.405 145.431 19.252 143.588 18.704 148.101 3.503ZM177.405 16.396L179.032 17.419 170.59 30.842 168.962 29.819ZM191.811 51.526L184.271 42.863 196.232 32.452 203.537 40.845 202.177 42.029 196.134 35.086 192.272 38.447 196.968 43.842 195.615 45.019 190.92 39.624 186.893 43.129 193.17 50.342ZM214.502 60.285L216.383 65.036C217.297 67.345 217.38 69.412 216.631 71.237 215.88 73.055 214.319 74.434 211.948 75.373V75.373C209.583 76.309 207.501 76.372 205.703 75.563 203.908 74.746 202.553 73.182 201.639 70.873V70.873L199.758 66.122ZM202.142 67.246L203.388 70.395C204.053 72.074 205.077 73.19 206.46 73.742 207.841 74.289 209.423 74.208 211.207 73.502V73.502C212.998 72.793 214.206 71.768 214.832 70.428 215.462 69.078 215.445 67.564 214.78 65.885V65.885L213.533 62.736ZM37.367 138.37L37.323 140.452C36.352 140.432 35.452 140.229 34.621 139.843 33.787 139.466 33.068 138.929 32.467 138.231 31.867 137.54 31.401 136.718 31.069 135.765V135.765C30.567 134.322 30.449 132.964 30.715 131.69 30.988 130.414 31.606 129.284 32.572 128.3 33.537 127.317 34.826 126.545 36.437 125.983V125.983C38.049 125.422 39.538 125.226 40.906 125.397 42.273 125.567 43.46 126.068 44.467 126.898 45.467 127.731 46.213 128.853 46.705 130.264V130.264C47.048 131.248 47.221 132.169 47.224 133.026 47.221 133.885 47.048 134.68 46.705 135.411 46.368 136.14 45.871 136.802 45.213 137.397V137.397L43.731 135.867C44.485 135.225 44.98 134.507 45.217 133.715 45.446 132.918 45.384 132.014 45.032 131.005V131.005C44.672 129.97 44.115 129.148 43.361 128.539 42.605 127.923 41.696 127.554 40.634 127.432 39.578 127.308 38.404 127.471 37.112 127.921V127.921C35.839 128.364 34.817 128.953 34.046 129.686 33.275 130.418 32.782 131.255 32.568 132.194 32.351 133.127 32.426 134.118 32.791 135.165V135.165C33.142 136.174 33.707 136.966 34.483 137.539 35.259 138.112 36.221 138.389 37.367 138.37ZM60.76 153.997V153.997C61.725 155.181 62.3 156.417 62.485 157.705 62.66 158.993 62.463 160.264 61.891 161.518 61.32 162.772 60.373 163.938 59.05 165.016V165.016C57.727 166.094 56.394 166.787 55.051 167.094 53.707 167.4 52.423 167.338 51.197 166.906 49.972 166.465 48.878 165.653 47.913 164.469V164.469C46.948 163.285 46.373 162.049 46.188 160.761 46.008 159.468 46.204 158.195 46.775 156.941 47.346 155.687 48.293 154.521 49.616 153.443V153.443C50.939 152.364 52.272 151.672 53.615 151.365 54.959 151.058 56.245 151.123 57.475 151.56 58.7 152.001 59.795 152.813 60.76 153.997ZM59.347 155.149V155.149C58.646 154.289 57.842 153.707 56.934 153.402 56.021 153.092 55.051 153.073 54.023 153.346 52.994 153.619 51.958 154.181 50.913 155.033V155.033C49.868 155.885 49.108 156.787 48.634 157.739 48.159 158.691 47.982 159.645 48.101 160.602 48.217 161.553 48.625 162.458 49.326 163.317V163.317C50.035 164.187 50.841 164.772 51.745 165.072 52.649 165.372 53.615 165.385 54.644 165.112 55.672 164.839 56.709 164.277 57.754 163.425V163.425C58.798 162.574 59.558 161.672 60.033 160.719 60.507 159.767 60.689 158.818 60.578 157.872 60.466 156.926 60.056 156.019 59.347 155.149ZM77.881 169.777L79.495 170.876 70.437 184.182 68.823 183.083ZM105.067 181.199L106.837 181.746 102.08 197.124 99.768 196.408 96.53 184.125 95.788 180.726 95.769 180.72 95.143 183.081 91.784 193.939 90.005 193.388 94.762 178.011 97.074 178.726 100.308 190.956 101.048 194.427 101.067 194.433 101.708 192.056ZM123.684 182.933L125.637 182.937 125.6 199.033 123.648 199.029ZM153.164 177.074L153.685 178.831 144.746 181.48 146.22 186.455 153.192 184.39 153.713 186.147 146.741 188.212 148.798 195.156 146.926 195.71 142.353 180.277ZM166.754 169.643L168.409 168.606 176.959 182.243 175.305 183.28ZM200.907 159.262L193.233 168.045 181.111 157.455 188.543 148.949 189.923 150.154 183.776 157.191 187.684 160.605 192.468 155.129 193.848 156.335 189.064 161.811 193.137 165.369 199.527 158.056ZM195.955 135.385L197.878 130.554C198.808 128.215 200.184 126.633 202.007 125.808 203.835 124.984 205.949 125.05 208.349 126.005V126.005C210.75 126.96 212.331 128.365 213.094 130.219 213.851 132.071 213.764 134.166 212.834 136.505V136.505L210.911 141.336ZM209.93 138.844L211.204 135.642C211.882 133.939 211.903 132.404 211.268 131.036 210.631 129.675 209.405 128.633 207.591 127.911V127.911C205.777 127.19 204.171 127.105 202.772 127.656 201.371 128.213 200.332 129.343 199.654 131.046V131.046L198.38 134.249ZM24.871 101.393C24.871 97.997 27.624 95.244 31.02 95.244 34.416 95.244 37.169 97.997 37.169 101.393 37.169 104.789 34.416 107.542 31.02 107.542 27.624 107.542 24.871 104.789 24.871 101.393ZM207.263 101.393C207.263 97.997 210.016 95.244 213.411 95.244 216.807 95.244 219.56 97.997 219.56 101.393 219.56 104.789 216.807 107.542 213.411 107.542 210.016 107.542 207.263 104.789 207.263 101.393Z" fill="#bb84e8" data-fill-palette-color="accent"></path></svg></g></svg></g></svg></g><defs></defs></svg><rect width="395.5199999999999" height="117.07237654653697" fill="none" stroke="none" visibility="hidden"></rect></g></svg></g></svg>